<svg width="700" height="361" viewBox="0 0 700 361" fill="none" xmlns="http://www.w3.org/2000/svg">
<path d="M446.751 102.666L446.76 102.666C446.775 102.667 446.789 102.664 446.802 102.657L446.809 102.653C448.013 102.043 449.249 101.499 450.512 101.024C451.765 100.548 453.063 100.087 454.325 99.7174L454.222 99.7322L454.241 99.7327C454.272 99.7337 454.304 99.7296 454.334 99.7207L454.359 99.713C461.028 97.621 467.953 96.4547 474.939 96.2467C478.421 96.1436 481.906 96.2547 485.374 96.5794L495.886 97.4676C502.897 98.0331 509.921 98.4375 516.941 98.8844C523.963 99.3098 530.982 99.7712 537.991 100.355L537.841 99.8181C536.601 100.719 535.466 101.758 534.459 102.913C533.462 104.083 532.612 105.37 531.929 106.746C531.268 108.132 530.744 109.578 530.365 111.066C530.005 112.556 529.775 114.075 529.675 115.605C529.505 118.663 529.711 121.73 530.288 124.738C530.834 127.759 531.69 130.715 532.844 133.56L533.679 132.486C528.747 131.554 523.817 130.614 518.879 129.718L504.071 127L504.88 127.729L504.773 127.411L504.805 127.498C504.089 125.231 502.613 123.28 500.627 121.974C498.653 120.671 496.311 120.039 493.95 120.172C491.578 120.324 489.328 121.275 487.566 122.87C487.336 123.055 487.128 123.265 486.947 123.498L486.375 124.171C486.032 124.644 485.715 125.137 485.427 125.646C485.153 126.151 484.966 126.671 484.734 127.183C484.625 127.44 484.507 127.695 484.408 127.955L484.163 128.748C482.985 132.946 482.532 137.314 482.824 141.664C483.018 145.956 483.62 150.219 484.622 154.396L485.363 153.653L475.408 151.571L465.433 149.577C465.408 149.572 465.382 149.577 465.36 149.591C465.338 149.605 465.323 149.627 465.318 149.651C465.312 149.676 465.316 149.703 465.329 149.725C465.343 149.746 465.364 149.762 465.389 149.769L475.227 152.349L485.083 154.855C485.182 154.88 485.286 154.88 485.385 154.855C485.484 154.829 485.575 154.779 485.65 154.709C485.724 154.639 485.78 154.551 485.812 154.454C485.844 154.357 485.85 154.253 485.831 154.152L485.824 154.112C485.028 149.99 484.574 145.809 484.465 141.612C484.286 137.47 484.813 133.327 486.023 129.362L486.256 128.637C486.349 128.403 486.459 128.178 486.559 127.948C486.772 127.498 486.95 127.014 487.187 126.592C487.455 126.2 487.666 125.764 487.97 125.402L488.437 124.869C488.58 124.682 488.749 124.515 488.937 124.372C490.364 123.115 492.173 122.375 494.072 122.273C495.98 122.164 497.873 122.671 499.47 123.72C501.061 124.769 502.251 126.325 502.849 128.135L502.882 128.221C502.887 128.246 502.894 128.27 502.904 128.294L502.97 128.444C503.037 128.594 503.14 128.725 503.27 128.826C503.399 128.927 503.552 128.995 503.714 129.023L518.558 131.536C523.505 132.385 528.459 133.189 533.412 134.001C533.549 134.023 533.69 134.009 533.82 133.958C533.949 133.907 534.063 133.822 534.149 133.712C534.234 133.602 534.288 133.471 534.305 133.333C534.323 133.194 534.302 133.054 534.247 132.926C533.07 130.207 532.152 127.382 531.505 124.491C530.833 121.594 530.531 118.624 530.606 115.652C530.654 114.171 530.83 112.696 531.131 111.244C531.45 109.798 531.929 108.392 532.559 107.052C533.202 105.719 534.006 104.47 534.953 103.332C535.914 102.203 537 101.186 538.189 100.3L538.198 100.293C538.245 100.256 538.28 100.206 538.298 100.149C538.317 100.092 538.317 100.031 538.3 99.9737C538.283 99.9163 538.249 99.8655 538.202 99.8278C538.156 99.7901 538.099 99.7674 538.04 99.7625C531.029 99.193 524.029 98.5055 517.032 97.7741C510.034 97.0653 503.039 96.3141 496.03 95.724L485.514 94.8788C481.975 94.5768 478.419 94.5223 474.871 94.7158C471.326 94.9121 467.8 95.3754 464.324 96.1015C460.851 96.8042 457.44 97.7832 454.123 99.0291L454.241 99.0094L454.222 99.0099L454.195 99.0107C454.169 99.0116 454.144 99.0163 454.12 99.0248C452.805 99.4943 451.575 100.016 450.324 100.575C449.079 101.131 447.872 101.768 446.711 102.482L446.76 102.469L446.751 102.47C446.725 102.471 446.701 102.481 446.684 102.5C446.666 102.518 446.656 102.542 446.656 102.568C446.656 102.593 446.666 102.618 446.684 102.636C446.701 102.654 446.725 102.665 446.751 102.666L446.751 102.666Z" fill="url(#paint0_linear_1_3004)"/>
<path d="M403.763 128.866C404.323 126.06 405.447 123.396 407.068 121.037C407.876 119.907 408.806 118.868 409.841 117.939C410.889 117.024 412.013 116.198 413.199 115.471C415.637 114.045 418.238 112.92 420.945 112.118C423.691 111.286 426.499 110.675 429.341 110.289L429.396 110.284C430.368 110.013 431.336 109.724 432.301 109.417C431.289 109.466 430.281 109.538 429.277 109.627L429.331 109.622C426.363 109.492 423.391 109.775 420.5 110.462C417.564 111.123 414.756 112.259 412.185 113.823C409.564 115.403 407.382 117.615 405.84 120.258C404.356 122.877 403.637 125.859 403.763 128.866Z" fill="url(#paint1_linear_1_3004)"/>
<path d="M496.811 120.772C495.099 120.109 493.368 119.532 491.625 119.009C489.883 118.478 488.133 117.989 486.373 117.539C484.619 117.067 482.845 116.681 481.078 116.264C479.301 115.891 477.528 115.502 475.738 115.189L475.324 115.116L475.064 115.315C474.33 115.882 473.653 116.519 473.042 117.216C472.436 117.88 471.879 118.587 471.376 119.332C470.871 120.068 470.419 120.838 470.021 121.637C469.62 122.427 469.281 123.247 469.007 124.089C469.52 123.372 470.048 122.677 470.591 122.006C471.142 121.335 471.698 120.666 472.278 120.059C472.87 119.443 473.476 118.847 474.105 118.287C474.72 117.746 475.364 117.239 476.034 116.769L475.36 116.895C477.115 117.365 478.886 117.76 480.653 118.178C482.43 118.55 484.199 118.954 485.988 119.27C487.772 119.613 489.564 119.912 491.367 120.168C493.167 120.433 494.98 120.646 496.811 120.772Z" fill="url(#paint2_linear_1_3004)"/>
<path d="M521.735 98.7197C519.636 100.661 517.985 103.035 516.895 105.677C515.756 108.319 515.037 111.124 514.765 113.988C514.537 116.845 514.712 119.721 515.285 122.529C515.355 122.878 515.408 123.23 515.49 123.575L515.783 124.601L516.399 126.635C516.896 127.96 517.478 129.253 518.088 130.514C517.889 129.107 517.561 127.758 517.333 126.394L517.045 124.343L516.886 123.327C516.844 122.987 516.831 122.643 516.801 122.302C516.754 121.619 516.699 120.939 516.628 120.262C516.577 119.583 516.604 118.901 516.587 118.223C516.557 116.869 516.601 115.514 516.72 114.165C516.969 111.467 517.507 108.803 518.323 106.22C519.145 103.588 520.291 101.069 521.735 98.7197Z" fill="url(#paint3_linear_1_3004)"/>
<path d="M468.478 119.164C467.009 118.616 465.532 118.077 464.045 117.566C464.127 118.173 464.171 118.784 464.175 119.397C465.448 119.796 466.731 120.177 468.022 120.549C468.896 120.8 469.769 121.051 470.652 121.302C470.773 121.116 470.894 120.939 471.015 120.772C471.135 120.595 471.265 120.428 471.377 120.27C470.411 119.889 469.444 119.527 468.478 119.164Z" fill="url(#paint4_linear_1_3004)"/>
<path d="M453.832 116.023C454.966 116.414 456.081 116.804 457.215 117.185H457.224C457.577 116.626 457.988 116.106 458.45 115.633L458.032 115.494C456.778 115.085 455.523 114.676 454.269 114.276C454.12 114.908 453.962 115.494 453.832 116.023Z" fill="url(#paint5_linear_1_3004)"/>
<path d="M460.216 109.9C458.348 109.295 456.48 108.691 454.603 108.106C454.806 108.73 454.904 109.383 454.891 110.039C456.462 110.596 458.051 111.126 459.631 111.665C463.134 112.808 466.656 113.933 470.206 114.945C471.851 115.429 473.505 115.89 475.168 116.33C477.082 116.841 478.997 117.324 480.939 117.743C480.168 117.399 479.396 117.055 478.616 116.72C478.606 116.72 478.606 116.72 478.597 116.711C475.977 115.596 473.319 114.564 470.661 113.57C467.204 112.269 463.71 111.08 460.216 109.9Z" fill="url(#paint6_linear_1_3004)"/>
<path d="M445.599 106.61C445.757 106.675 445.915 106.74 446.073 106.796C446.479 106.456 446.937 106.183 447.429 105.987C446.928 105.848 446.426 105.708 445.924 105.569C445.803 105.959 445.692 106.312 445.599 106.61Z" fill="url(#paint7_linear_1_3004)"/>
<path d="M533.544 133.24C554.523 114.091 538.012 100.062 538.012 100.062C523.348 110.68 533.544 133.24 533.544 133.24Z" fill="url(#paint8_linear_1_3004)"/>
<path d="M485.224 154.25C502.537 159.414 503.891 128.01 503.891 128.01C503.871 127.945 503.851 127.881 503.83 127.818C501.227 119.822 490.07 118.788 486.22 126.264C481.004 136.395 485.224 154.25 485.224 154.25Z" fill="url(#paint9_linear_1_3004)"/>
<path d="M472.166 150.5C475.033 157.565 477.967 164.557 480.666 171.614C483.425 178.584 485.749 185.718 487.627 192.975C488.07 194.756 488.41 196.561 488.646 198.381C488.902 200.143 488.894 201.933 488.622 203.692C488.479 204.52 488.199 205.318 487.791 206.052C487.376 206.75 486.8 207.339 486.112 207.77C484.541 208.566 482.755 208.834 481.019 208.532C477.334 207.892 473.787 206.615 470.54 204.758C469.715 204.301 468.889 203.85 468.075 203.373L465.667 201.875C464.042 200.911 462.52 199.783 460.961 198.724C459.408 197.654 457.931 196.475 456.416 195.36L454.217 193.587C453.485 192.997 452.732 192.435 452.026 191.813C450.606 190.578 449.128 189.421 447.748 188.146L445.643 186.277L443.592 184.349C440.869 181.769 438.249 179.086 435.733 176.302C433.199 173.539 430.767 170.684 428.393 167.781C423.633 161.961 419.2 155.881 415.116 149.568C413.067 146.406 411.101 143.184 409.218 139.904C407.332 136.627 405.527 133.288 403.883 129.866L403.513 129.998C405.737 137.344 408.734 144.434 412.455 151.147C416.128 157.913 420.367 164.356 425.127 170.406C429.938 176.433 435.279 182.017 441.087 187.091L443.267 188.986L445.508 190.808C446.992 192.034 448.546 193.174 450.099 194.309C451.654 195.44 453.27 196.49 454.87 197.55C456.519 198.544 458.123 199.596 459.799 200.534C461.472 201.475 463.123 202.444 464.83 203.316C466.521 204.211 468.208 205.112 469.937 205.948C473.379 207.727 477.051 209.021 480.848 209.795C482.873 210.222 484.981 210.01 486.879 209.187C487.86 208.695 488.708 207.976 489.353 207.088C489.959 206.211 490.423 205.242 490.725 204.22C491.261 202.258 491.496 200.227 491.422 198.196C491.369 196.226 491.171 194.262 490.831 192.32C490.137 188.506 489.119 184.757 487.789 181.114C486.514 177.48 485.057 173.928 483.476 170.44C482.701 168.689 481.859 166.969 481.011 165.256C480.17 163.539 479.284 161.845 478.371 160.166C476.552 156.806 474.635 153.5 472.512 150.314L472.166 150.5Z" fill="url(#paint10_linear_1_3004)"/>
<path d="M518.354 104.132C513.002 103.327 507.636 102.715 502.265 102.171C496.894 101.614 491.515 101.173 486.135 100.753C480.752 100.37 475.367 100.012 469.973 99.7678C464.581 99.5113 459.183 99.3244 453.771 99.3323C459.122 100.14 464.489 100.753 469.86 101.297C475.23 101.852 480.609 102.294 485.989 102.711C491.373 103.092 496.758 103.45 502.151 103.694C507.544 103.949 512.942 104.137 518.354 104.132Z" fill="url(#paint11_linear_1_3004)"/>
<path d="M452.624 194.286C453.393 187.461 454.133 180.625 454.796 173.782L455.05 171.216L455.177 169.933C455.19 169.833 455.194 169.704 455.214 169.627C455.237 169.567 455.256 169.504 455.27 169.441C455.334 169.269 455.408 169.101 455.489 168.937C456.248 167.5 457.243 166.063 458.166 164.628C460.05 161.757 461.868 158.812 463.492 155.747C464.296 154.209 465.053 152.641 465.715 151.023C466.37 149.384 466.919 147.752 467.487 146.141C468.629 142.906 469.761 139.668 470.85 136.415L472.504 131.542L472.917 130.324C473.078 129.863 473.186 129.385 473.239 128.9C473.354 127.912 473.215 126.912 472.835 125.993C472.456 125.015 471.736 124.208 470.808 123.72C469.849 123.299 468.765 123.256 467.775 123.599C466.073 124.238 464.519 125.218 463.21 126.481L464.232 127.055C464.468 125.397 464.62 123.729 464.686 122.057C464.718 121.222 464.723 120.378 464.69 119.543C464.619 118.7 464.585 117.844 464.443 117.008C464.321 116.118 464.003 115.266 463.513 114.513C463.22 114.09 462.788 113.784 462.292 113.647C461.816 113.549 461.323 113.576 460.861 113.726C459.191 114.293 457.791 115.457 456.927 116.994L457.224 116.832H457.215L457.022 116.833L456.92 116.991C456.349 117.906 455.833 118.853 455.373 119.829C455.159 120.293 454.909 120.738 454.624 121.162C454.448 121.37 454.45 121.367 454.2 121.382C454.122 121.39 454.043 121.374 453.974 121.335C453.905 121.297 453.849 121.239 453.814 121.168C453.641 120.723 453.571 120.244 453.611 119.768C453.624 119.246 453.665 118.726 453.734 118.208C453.867 117.162 454.073 116.126 454.35 115.109C454.633 114.073 454.861 113.022 455.033 111.962C455.228 110.878 455.243 109.769 455.077 108.68C454.973 108.116 454.764 107.576 454.459 107.089C454.139 106.597 453.703 106.191 453.188 105.909C452.173 105.412 451.043 105.194 449.916 105.278L449.974 105.281C449.493 105.234 449.008 105.25 448.531 105.328C448.06 105.404 447.598 105.535 447.156 105.717C446.263 106.091 445.488 106.703 444.916 107.485L444.952 107.443C444.878 107.522 444.835 107.625 444.83 107.733L444.837 109.318L445.564 107.907L445.573 107.889L445.583 107.871L445.598 107.827C446.9 104.377 447.776 100.782 448.209 97.1201C448.301 96.1714 448.288 95.2156 448.171 94.2698C448.083 93.2152 447.626 92.2253 446.88 91.4743C446.445 91.0976 445.913 90.8503 445.344 90.7606C444.793 90.6962 444.235 90.7531 443.708 90.9272C442.767 91.2801 441.907 91.8196 441.18 92.5132C439.814 93.8112 438.614 95.2729 437.606 96.865C436.59 98.4119 435.657 100.011 434.81 101.657C433.046 104.919 431.653 108.369 430.66 111.943C429.713 115.481 428.819 118.987 427.604 122.37C426.379 125.711 424.901 129.073 422.549 131.51C421.458 132.705 419.996 133.498 418.398 133.759C417.578 133.845 416.75 133.811 415.939 133.66C415.076 133.54 414.221 133.365 413.38 133.134C411.693 132.677 410.066 132.022 408.534 131.181C407.019 130.353 405.619 129.33 404.37 128.137L403.367 127.141L402.833 128.359C402.253 129.729 401.901 131.183 401.791 132.666C401.67 134.104 401.722 135.551 401.944 136.976C402.417 139.796 403.437 142.496 404.948 144.924C405.698 146.157 406.611 147.284 407.661 148.273C408.73 149.223 409.897 150.055 411.143 150.756C412.369 151.445 413.626 152.017 414.777 152.659C415.901 153.203 416.863 154.033 417.566 155.065C418.152 156.184 418.462 157.427 418.47 158.69C418.56 160.034 418.611 161.389 418.627 162.749C418.661 165.468 418.609 168.196 418.512 170.922C418.407 173.649 418.301 176.377 418.124 179.102C417.931 181.822 417.781 184.561 417.323 187.241L417.504 187.283C418.088 184.593 418.358 181.869 418.674 179.149C418.962 176.427 419.225 173.701 419.405 170.968C419.586 168.235 419.723 165.498 419.774 162.751C419.8 161.377 419.789 159.998 419.741 158.613C419.765 157.136 419.431 155.674 418.768 154.353C417.962 153.094 416.838 152.068 415.511 151.38C414.287 150.669 413.062 150.084 411.917 149.411C410.791 148.75 409.739 147.971 408.778 147.087C407.854 146.182 407.057 145.156 406.407 144.039C405.064 141.786 404.172 139.293 403.782 136.699C403.588 135.421 403.546 134.124 403.659 132.836C403.758 131.588 404.051 130.364 404.525 129.206L402.987 129.428C405.759 132.091 409.159 134.008 412.871 135.003C413.787 135.258 414.72 135.453 415.662 135.588C416.143 135.64 416.584 135.73 417.099 135.749L417.872 135.772C418.13 135.757 418.389 135.727 418.648 135.702C420.687 135.4 422.558 134.404 423.947 132.881C426.652 129.992 428.094 126.453 429.342 122.983C430.556 119.484 431.427 115.902 432.329 112.388C432.558 111.512 432.788 110.64 433.065 109.814C433.347 108.972 433.666 108.132 433.999 107.298C434.666 105.628 435.402 103.979 436.205 102.367C436.998 100.754 437.876 99.1841 438.834 97.6637C439.755 96.1559 440.849 94.7613 442.094 93.5082C442.672 92.921 443.36 92.454 444.118 92.1342C444.457 92.0113 444.817 91.9607 445.176 91.9857C445.513 92.0309 445.832 92.1678 446.097 92.3815C446.646 92.9372 446.987 93.6651 447.062 94.4427C447.192 95.3051 447.227 96.1791 447.167 97.0492C446.829 100.648 446.053 104.193 444.856 107.604L444.88 107.542L444.871 107.561L445.605 107.735C445.606 107.783 445.597 107.829 445.58 107.873C445.562 107.916 445.535 107.956 445.501 107.989L445.538 107.947C446.013 107.256 446.67 106.71 447.436 106.368C448.206 106.03 449.046 105.887 449.884 105.951L449.921 105.954L449.943 105.953C450.949 105.866 451.96 106.046 452.875 106.475C453.299 106.717 453.663 107.052 453.939 107.455C454.216 107.857 454.397 108.318 454.47 108.8C454.631 109.82 454.624 110.86 454.448 111.877C454.288 112.921 454.073 113.956 453.804 114.977C453.52 116.015 453.301 117.069 453.148 118.133C453.071 118.671 453.022 119.212 453.002 119.755C452.947 120.343 453.038 120.936 453.269 121.48C453.364 121.639 453.496 121.771 453.655 121.865C453.813 121.96 453.993 122.014 454.177 122.022C454.362 122.03 454.545 121.993 454.712 121.913C454.878 121.833 455.022 121.714 455.131 121.565C455.45 121.111 455.73 120.631 455.968 120.13C456.428 119.184 456.942 118.266 457.509 117.38L457.215 117.538L457.224 117.538L457.415 117.539L457.52 117.376C458.292 116.002 459.559 114.973 461.062 114.499C461.368 114.367 461.711 114.348 462.03 114.444C462.349 114.541 462.623 114.747 462.805 115.027C463.189 115.68 463.429 116.408 463.506 117.162C463.616 117.958 463.62 118.759 463.666 119.562C463.674 120.377 463.644 121.185 463.588 121.999C463.474 123.624 463.279 125.243 463.003 126.849L462.718 128.504L464.025 127.423C465.224 126.327 466.631 125.482 468.163 124.94C468.815 124.721 469.526 124.756 470.154 125.038C470.741 125.392 471.187 125.938 471.417 126.583C471.689 127.262 471.783 127.999 471.69 128.724C471.647 129.092 471.561 129.454 471.435 129.803L471.01 131.019L469.309 135.882C468.163 139.12 467.059 142.373 465.965 145.629C465.41 147.261 464.881 148.891 464.279 150.446C463.659 152.013 462.94 153.548 462.172 155.061C460.626 158.087 458.833 160.992 457.033 163.91C456.144 165.388 455.209 166.802 454.409 168.424C454.305 168.647 454.215 168.876 454.14 169.109C454.105 169.255 454.074 169.403 454.048 169.549C454.027 169.683 454.029 169.77 454.019 169.883L453.928 171.165L453.747 173.729C453.249 180.568 452.829 187.413 452.439 194.27L452.624 194.286Z" fill="url(#paint12_linear_1_3004)"/>
<path d="M441.427 117.742L445.65 107.901L444.781 107.572L441.427 117.742Z" fill="url(#paint13_linear_1_3004)"/>
<path d="M303.83 84.1238C307.256 85.5753 310.826 86.7957 314.401 87.9154C317.995 89.0235 321.648 89.9318 325.342 90.636C329.057 91.3965 332.84 91.7734 336.631 91.7607C338.555 91.7432 340.473 91.5464 342.36 91.1729C344.304 90.8025 346.165 90.0821 347.853 89.0469L347.771 89.0941C350.607 87.6787 353.459 86.2932 356.28 84.8465L357.221 84.3637L356.655 83.5485C356.586 83.4391 356.501 83.3413 356.402 83.2589C356.354 83.2141 356.303 83.1731 356.249 83.1363C356.164 83.0775 356.063 83.0006 355.988 82.9609C355.831 82.8749 355.663 82.7685 355.515 82.7049C355.208 82.5533 354.905 82.4235 354.607 82.3102C354.006 82.0764 353.411 81.8692 352.814 81.692C351.622 81.314 350.423 81.0282 349.224 80.7477C346.826 80.1947 344.42 79.7269 342.005 79.3443C339.593 78.9389 337.177 78.5829 334.758 78.2547C332.341 77.9122 329.918 77.6269 327.498 77.3238L327.826 77.5043L322.876 71.8396C321.224 69.949 319.632 68.0295 317.923 66.1599C314.472 62.4605 310.474 59.3126 306.068 56.826C303.858 55.5967 301.561 54.5296 299.196 53.6332C296.82 52.7613 294.39 52.0481 291.92 51.4985C286.971 50.2399 281.844 49.8335 276.758 50.2967C271.611 50.9329 266.704 52.8455 262.484 55.8607C258.286 58.9204 254.866 62.9242 252.5 67.5489C251.329 69.8594 250.416 72.292 249.777 74.8025L249.363 76.7002C249.248 77.3288 249.137 77.9526 249.041 78.5827C248.841 79.8395 248.678 81.1034 248.552 82.3743C248.28 84.9255 248.218 87.4948 248.366 90.0562C248.504 92.6568 248.979 95.2285 249.777 97.7074L250.098 98.6712L251.068 98.3796L264.178 94.4386L277.324 90.6116C281.706 89.3362 286.099 88.0985 290.51 86.9429C292.713 86.3482 294.922 85.7874 297.14 85.2606C298.252 85.0298 299.36 84.732 300.48 84.5556L302.159 84.2548L303.83 84.1238ZM303.876 83.9229L302.125 83.941L300.415 84.1364C299.27 84.2571 298.153 84.4969 297.019 84.6716C294.768 85.0849 292.521 85.527 290.288 86.0204C285.822 87.0115 281.376 88.0847 276.942 89.1957C272.506 90.3036 268.095 91.5027 263.683 92.6935C259.273 93.8993 254.863 95.0905 250.472 96.3734L251.763 97.0455C250.29 92.4763 250.3 87.4671 250.743 82.59C250.861 81.3652 251.017 80.1427 251.211 78.9225C251.302 78.3131 251.41 77.7022 251.519 77.0978L251.905 75.3209C252.477 72.962 253.304 70.6724 254.371 68.4926C256.537 64.1217 259.7 60.3209 263.604 57.3965C267.543 54.495 272.131 52.6003 276.97 51.8776C281.882 51.2973 286.855 51.5358 291.689 52.5834C296.593 53.4577 301.328 55.1054 305.715 57.465C310.102 59.843 314.065 62.9316 317.442 66.6052C320.725 70.3536 323.855 74.3034 327.028 78.1782L327.148 78.325L327.356 78.3589C329.758 78.7501 332.162 79.1265 334.555 79.5534C336.951 79.9664 339.342 80.4067 341.719 80.8944C344.097 81.3766 346.466 81.8923 348.806 82.4715C349.974 82.7639 351.136 83.0828 352.267 83.4377C352.837 83.6086 353.393 83.8063 353.926 84.016C354.197 84.1198 354.452 84.2315 354.692 84.3511C354.824 84.4074 354.91 84.4715 355.022 84.5295C355.062 84.5535 355.102 84.5797 355.139 84.608C355.161 84.6215 355.178 84.6337 355.166 84.6262C355.153 84.6042 355.2 84.6801 355.074 84.498L355.449 83.2003C352.61 84.6109 349.802 86.083 346.978 87.5249L346.933 87.5479L346.896 87.5722C343.966 89.4813 340.219 90.0315 336.595 90.1615C334.755 90.2065 332.913 90.1521 331.079 89.9985C329.237 89.8657 327.395 89.6431 325.561 89.3571C321.888 88.8076 318.254 87.974 314.636 87.0777C311.012 86.1677 307.45 85.1099 303.876 83.9229Z" fill="url(#paint14_linear_1_3004)"/>
<path d="M281.186 55.833C282.945 57.9003 284.748 59.9098 286.559 61.9084L291.987 67.8947C293.796 69.8865 295.591 71.8908 297.371 73.9075C299.138 75.9367 300.886 77.9778 302.623 80.0666C301.334 77.674 299.855 75.3883 298.202 73.2311C296.576 71.0553 294.809 68.9952 293.005 66.9728C291.176 64.9718 289.29 63.0261 287.323 61.1627C285.371 59.2809 283.323 57.5019 281.186 55.833Z" fill="url(#paint15_linear_1_3004)"/>
<path d="M271.789 56.8223C270.333 59.463 269.046 62.1932 267.935 64.9963C266.806 67.7919 265.82 70.6419 264.976 73.5464C264.139 76.4527 263.487 79.4089 263.023 82.3974C262.561 85.3887 262.433 88.422 262.639 91.4417C262.965 88.4679 263.445 85.5131 264.078 82.5892C264.72 79.678 265.475 76.7938 266.296 73.9258C267.106 71.0538 268.023 68.2107 268.939 65.3619C269.881 62.5223 270.811 59.6715 271.789 56.8223Z" fill="url(#paint16_linear_1_3004)"/>
<path d="M327.427 77.8408C325.803 77.8633 324.182 77.9768 322.571 78.181C320.965 78.3617 319.373 78.6214 317.784 78.8964C316.199 79.1967 314.618 79.514 313.051 79.9099C311.471 80.2856 309.913 80.7506 308.386 81.3027C310.01 81.282 311.631 81.1691 313.242 80.9646C314.849 80.7836 316.441 80.5239 318.029 80.2472C319.614 79.9452 321.195 79.628 322.762 79.2317C324.342 78.8557 325.899 78.3913 327.427 77.8408Z" fill="url(#paint17_linear_1_3004)"/>
<path d="M327.427 90.313C327.401 91.692 327.474 93.0686 327.572 94.4474C327.661 95.839 327.859 97.2214 328.166 98.5817C328.317 99.3166 328.595 100.02 328.985 100.661C329.336 101.185 329.678 101.798 330.019 102.382C330.705 103.561 331.368 104.761 332.03 105.959C333.367 108.35 334.683 110.752 335.976 113.166C336.61 114.377 337.267 115.578 337.875 116.796C338.18 117.404 338.47 118.018 338.754 118.627C338.892 118.933 339.025 119.239 339.139 119.541C339.19 119.689 339.251 119.845 339.281 119.977C339.3 120.033 339.312 120.091 339.319 120.149C339.321 120.16 339.33 120.216 339.33 120.191C339.33 120.168 339.336 120.145 339.347 120.125C339.358 120.105 339.374 120.088 339.394 120.076L339.646 119.899C339.177 120.01 338.695 120.056 338.214 120.034C337.7 120.013 337.188 119.944 336.687 119.828C336.176 119.708 335.674 119.557 335.182 119.375C334.685 119.186 334.199 118.969 333.726 118.727L333.657 118.692L333.611 118.701C333.128 118.792 332.676 119.002 332.294 119.311C331.929 119.618 331.669 120.031 331.548 120.492C331.729 120.075 332.034 119.723 332.422 119.486C332.792 119.253 333.212 119.113 333.648 119.078L333.532 119.053C334.444 119.685 335.44 120.186 336.491 120.541C337.03 120.715 337.585 120.837 338.147 120.907C338.743 120.99 339.347 120.97 339.936 120.848L340.105 120.811L340.188 120.671C340.254 120.559 340.3 120.436 340.323 120.308C340.331 120.237 340.332 120.165 340.325 120.094C340.322 119.981 340.307 119.869 340.281 119.759C340.243 119.573 340.196 119.388 340.139 119.206C340.031 118.858 339.911 118.525 339.786 118.197C339.536 117.541 339.253 116.906 338.967 116.275C338.389 115.015 337.793 113.77 337.154 112.548C335.898 110.093 334.556 107.689 333.173 105.307C332.471 104.121 331.756 102.944 331.019 101.774C330.643 101.187 330.275 100.623 329.827 100.029C329.482 99.5069 329.221 98.9332 329.054 98.3294C328.319 95.6999 327.776 93.0208 327.427 90.313Z" fill="url(#paint18_linear_1_3004)"/>
<path d="M323.965 123.918C327.921 117.818 333.629 120.492 333.629 120.492C333.629 120.492 335.834 150.789 322.316 151.613C312.029 152.241 303.177 145.994 296.953 139.266C293.729 135.765 291.689 131.337 291.121 126.611C290.277 119.711 289.008 109.286 288.686 106.279C288.192 101.663 286.321 89.5766 279.619 90.3131C279.619 90.3131 265.607 90.4526 272.86 114.686C272.86 114.686 274.838 129.853 261.98 128.039C261.98 128.039 264.618 120.456 261.156 114.686C257.694 108.916 253.142 101.622 253.357 96.6141C253.357 96.6141 298.742 83.199 303.853 84.0233C300.707 85.6837 298.177 88.309 296.634 91.5137C295.091 94.7183 294.617 98.3332 295.28 101.828C296.788 111.627 304.04 124.778 307.406 130.48C307.939 131.39 308.709 132.138 309.634 132.645C310.559 133.152 311.604 133.398 312.658 133.359C314.607 133.28 316.843 132.995 317.907 132.161C320.008 130.512 323.965 123.918 323.965 123.918Z" fill="url(#paint19_linear_1_3004)"/>
<path d="M324.45 94.8546C323.487 94.1127 322.384 93.5718 321.207 93.2642C320.01 92.9275 318.76 92.8231 317.523 92.9569C316.259 93.108 315.057 93.5872 314.036 94.3467C313.043 95.0881 312.281 96.0959 311.838 97.2531C312.671 96.4701 313.603 95.7978 314.608 95.2529C315.573 94.7605 316.618 94.4443 317.694 94.3192C318.795 94.1971 319.906 94.1951 321.008 94.3133C322.134 94.431 323.272 94.6158 324.45 94.8546Z" fill="url(#paint20_linear_1_3004)"/>
<path d="M285.554 111.718C283.344 112.585 280.787 112.487 279.15 111.036C278.325 110.305 277.666 109.405 277.217 108.397C276.735 107.361 276.348 106.283 276.063 105.176C275.425 102.945 275.048 100.647 274.94 98.3288C274.889 97.1653 274.918 95.9996 275.027 94.8401C275.082 94.2571 275.166 93.6774 275.28 93.1031C275.332 92.8127 275.405 92.53 275.482 92.2451C275.543 91.9568 275.66 91.6836 275.828 91.4414C275.414 91.8857 275.102 92.4156 274.916 92.9935C274.695 93.5582 274.51 94.1363 274.363 94.7243C274.082 95.9068 273.916 97.1136 273.868 98.3279C273.78 100.764 274.074 103.2 274.74 105.545C275.401 107.824 276.362 110.346 278.504 111.887C279.558 112.642 280.841 113.006 282.134 112.919C283.362 112.837 284.545 112.422 285.554 111.718Z" fill="url(#paint21_linear_1_3004)"/>
<path d="M301.546 143.666C300.738 144.159 299.991 144.746 299.32 145.415C298.646 146.065 298.024 146.767 297.461 147.516C296.89 148.272 296.398 149.084 295.993 149.94C295.52 150.802 295.329 151.791 295.445 152.767C295.841 151.952 296.334 151.187 296.913 150.49C297.457 149.774 298.026 149.07 298.561 148.338C299.105 147.611 299.635 146.867 300.141 146.098C300.668 145.323 301.138 144.51 301.546 143.666Z" fill="url(#paint22_linear_1_3004)"/>
<path d="M261.98 128.039C261.107 129.39 260.311 130.79 259.597 132.232C259.236 132.921 258.879 133.602 258.477 134.25C258.08 134.933 257.595 135.56 257.034 136.117C257.907 135.995 258.71 135.575 259.307 134.928C259.918 134.329 260.426 133.634 260.812 132.871C261.2 132.13 261.499 131.345 261.702 130.533C261.924 129.721 262.018 128.88 261.98 128.039Z" fill="url(#paint23_linear_1_3004)"/>
<path d="M241.864 124.573C241.864 124.573 257.764 125.734 260.449 132.081L259.966 132.992L258.191 132.081C249.66 127.834 244.838 133.475 250.766 134.469C256.704 135.454 292.063 151.652 292.063 151.652C307.396 155.991 316.383 179.307 316.383 179.307C313.911 178.248 311.392 177.3 308.893 176.287C306.328 175.46 303.782 174.568 301.189 173.834C295.983 172.364 290.674 171.286 285.308 170.609C279.931 169.917 274.501 169.749 269.092 170.107C267.744 170.256 266.397 170.339 265.049 170.535C263.72 170.767 262.373 170.925 261.053 171.241C258.399 171.762 255.814 172.589 253.35 173.703C255.913 172.937 258.542 172.411 261.202 172.133C262.522 171.929 263.86 171.863 265.179 171.743C266.508 171.659 267.837 171.613 269.166 171.548C274.487 171.467 279.807 171.768 285.085 172.449L289.043 172.96L292.983 173.657L294.953 173.982L296.905 174.41C298.215 174.698 299.516 174.977 300.826 175.246C303.428 175.85 306.012 176.538 308.623 177.16C311.206 177.867 313.771 178.647 316.383 179.307C356.602 185.905 395.845 210.633 398.475 209.973C401.114 209.313 403.428 188.544 403.428 183.201C403.428 177.867 404.413 167.765 412.33 167.765C420.239 167.765 419.254 174.689 419.254 174.689C404.413 178.647 438.703 181.621 448.925 182.931C459.147 184.251 453.544 180.301 453.544 180.301C453.544 180.301 456.508 177.133 459.686 181.073C460.678 182.344 461.347 183.836 461.635 185.422C461.923 187.009 461.822 188.641 461.341 190.18C460.328 193.562 458.831 198.692 457.828 202.716C456.174 209.313 450.245 256.79 448.266 261.409C446.286 266.018 405.407 278.219 318.362 271.956C311.309 270.85 304.283 269.679 297.258 268.508C290.242 267.31 283.226 266.083 276.266 264.661C272.781 263.964 269.296 263.239 265.848 262.412C262.382 261.622 258.944 260.746 255.533 259.782C252.121 258.824 248.759 257.695 245.46 256.4C242.119 255.198 239.008 253.435 236.26 251.187C237.471 252.512 238.86 253.663 240.386 254.606C241.896 255.582 243.467 256.46 245.088 257.236C248.343 258.752 251.689 260.065 255.106 261.167C261.928 263.335 268.869 265.11 275.894 266.483C282.91 267.877 289.96 269.029 297.044 269.939C304.125 270.878 311.234 271.566 318.362 271.956C318.362 271.956 321.531 291.22 323.185 308.551H199.201C199.331 291.629 199.359 269.205 198.838 249.04C197.853 210.141 198.838 191.834 198.838 191.834C200.621 191.637 202.382 191.276 204.098 190.756C205.817 190.263 207.499 189.678 209.181 189.074C212.536 187.866 215.807 186.453 219.059 185.004C222.293 183.526 225.49 181.983 228.64 180.32C231.79 178.675 234.904 176.937 237.914 175.023C234.56 176.25 231.279 177.616 228.018 179.019C224.756 180.404 221.531 181.872 218.288 183.312L208.633 187.736C205.39 189.167 202.221 190.709 198.838 191.834C198.838 191.834 182.52 199.259 181.033 180.459C179.556 161.669 197.361 121.116 241.864 124.573ZM235.015 185.626C233.375 187.174 231.944 188.93 230.759 190.849C230.174 191.806 229.672 192.819 229.142 193.822C228.687 194.854 228.315 195.913 227.888 196.963C227.686 197.489 227.524 198.03 227.404 198.58L226.977 200.216C226.689 201.302 226.477 202.408 226.345 203.524L226.122 205.197L226.01 206.033L225.973 206.869L225.862 210.224L225.834 211.06L225.89 211.897L226.01 213.57C226.085 214.685 226.159 215.79 226.28 216.896C226.652 219.089 227.005 221.283 227.479 223.448C228.083 225.585 228.668 227.713 229.337 229.813C229.068 227.611 228.724 225.446 228.38 223.28C228.12 221.106 227.971 218.922 227.72 216.757L227.637 213.495L227.59 211.869L227.562 211.06L227.618 210.252L227.785 207.009L227.823 206.2L227.943 205.401L228.185 203.803C228.73 199.531 230.023 195.388 232.004 191.564C233.03 189.669 234.258 187.89 235.666 186.258C237.07 184.588 238.714 183.135 240.544 181.946C238.492 182.825 236.618 184.072 235.015 185.626ZM211.588 147.99C212.253 149.39 213.392 150.509 214.803 151.15C215.502 151.468 216.234 151.705 216.987 151.856C217.739 151.963 218.496 152.028 219.255 152.051C220.007 152.014 220.769 152.014 221.513 151.921L223.724 151.559C224.459 151.41 225.165 151.196 225.89 151.011L227.981 150.444C229.344 150.088 230.732 149.839 232.134 149.7C234.974 149.435 237.833 149.426 240.674 149.672C246.417 150.191 252.108 151.179 257.689 152.627C260.496 153.334 263.302 154.096 266.081 154.923C268.878 155.713 271.629 156.623 274.398 157.543C269.133 155.007 263.673 152.897 258.071 151.234C252.455 149.501 246.675 148.358 240.823 147.823C237.861 147.588 234.884 147.631 231.93 147.953C230.443 148.144 228.973 148.452 227.534 148.873L223.399 150.146L221.327 150.592C220.63 150.713 219.933 150.741 219.236 150.834C218.539 150.88 217.842 150.825 217.154 150.806C216.473 150.714 215.803 150.549 215.156 150.314C213.842 149.861 212.731 148.955 212.025 147.758C211.66 147.15 211.384 146.493 211.207 145.806C210.998 145.113 210.885 144.394 210.872 143.669C210.711 145.148 210.958 146.643 211.588 147.99H211.588Z" fill="url(#paint24_linear_1_3004)"/>
<path d="M375.399 308.554C357.101 308.023 338.802 307.667 320.503 307.486C311.354 307.36 302.204 307.331 293.055 307.257L265.607 307.181L238.158 307.253C229.009 307.33 219.86 307.354 210.71 307.482C192.411 307.662 174.113 308.019 155.814 308.554C174.113 309.088 192.411 309.445 210.71 309.626C219.86 309.754 229.009 309.778 238.158 309.855L265.607 309.927L293.055 309.851C302.204 309.777 311.354 309.749 320.503 309.622C338.802 309.441 357.101 309.085 375.399 308.554Z" fill="url(#paint25_linear_1_3004)"/>
<path d="M321.369 104.806C317.781 104.806 317.775 99.2305 321.369 99.2305C324.956 99.2305 324.962 104.806 321.369 104.806Z" fill="url(#paint26_linear_1_3004)"/>
<defs>
<linearGradient id="paint0_linear_1_3004" x1="472.577" y1="108.186" x2="496.149" y2="154.387" gradientUnits="userSpaceOnUse">
<stop stop-color="#9DE8EE"/>
<stop offset="0.0001" stop-color="#9DE8EE"/>
<stop offset="0.490049" stop-color="#FA7C0B"/>
<stop offset="1" stop-color="#9F8CED"/>
</linearGradient>
<linearGradient id="paint1_linear_1_3004" x1="411.823" y1="113.8" x2="419.586" y2="128.487" gradientUnits="userSpaceOnUse">
<stop stop-color="#9DE8EE"/>
<stop offset="0.0001" stop-color="#9DE8EE"/>
<stop offset="0.490049" stop-color="#FA7C0B"/>
<stop offset="1" stop-color="#9F8CED"/>
</linearGradient>
<linearGradient id="paint2_linear_1_3004" x1="476.87" y1="117.138" x2="478.913" y2="125.296" gradientUnits="userSpaceOnUse">
<stop stop-color="#9DE8EE"/>
<stop offset="0.0001" stop-color="#9DE8EE"/>
<stop offset="0.490049" stop-color="#FA7C0B"/>
<stop offset="1" stop-color="#9F8CED"/>
</linearGradient>
<linearGradient id="paint3_linear_1_3004" x1="516.667" y1="105.885" x2="524.798" y2="108.215" gradientUnits="userSpaceOnUse">
<stop stop-color="#9DE8EE"/>
<stop offset="0.0001" stop-color="#9DE8EE"/>
<stop offset="0.490049" stop-color="#FA7C0B"/>
<stop offset="1" stop-color="#9F8CED"/>
</linearGradient>
<linearGradient id="paint4_linear_1_3004" x1="466.118" y1="118.408" x2="467.352" y2="121.529" gradientUnits="userSpaceOnUse">
<stop stop-color="#9DE8EE"/>
<stop offset="0.0001" stop-color="#9DE8EE"/>
<stop offset="0.490049" stop-color="#FA7C0B"/>
<stop offset="1" stop-color="#9F8CED"/>
</linearGradient>
<linearGradient id="paint5_linear_1_3004" x1="455.138" y1="114.932" x2="456.247" y2="117.2" gradientUnits="userSpaceOnUse">
<stop stop-color="#9DE8EE"/>
<stop offset="0.0001" stop-color="#9DE8EE"/>
<stop offset="0.490049" stop-color="#FA7C0B"/>
<stop offset="1" stop-color="#9F8CED"/>
</linearGradient>
<linearGradient id="paint6_linear_1_3004" x1="462.051" y1="110.278" x2="464.497" y2="118.893" gradientUnits="userSpaceOnUse">
<stop stop-color="#9DE8EE"/>
<stop offset="0.0001" stop-color="#9DE8EE"/>
<stop offset="0.490049" stop-color="#FA7C0B"/>
<stop offset="1" stop-color="#9F8CED"/>
</linearGradient>
<linearGradient id="paint7_linear_1_3004" x1="446.117" y1="105.845" x2="446.602" y2="106.778" gradientUnits="userSpaceOnUse">
<stop stop-color="#9DE8EE"/>
<stop offset="0.0001" stop-color="#9DE8EE"/>
<stop offset="0.490049" stop-color="#FA7C0B"/>
<stop offset="1" stop-color="#9F8CED"/>
</linearGradient>
<linearGradient id="paint8_linear_1_3004" x1="534.079" y1="107.54" x2="547.58" y2="114.931" gradientUnits="userSpaceOnUse">
<stop stop-color="#9DE8EE"/>
<stop offset="0.0001" stop-color="#9DE8EE"/>
<stop offset="0.490049" stop-color="#FA7C0B"/>
<stop offset="1" stop-color="#9F8CED"/>
</linearGradient>
<linearGradient id="paint9_linear_1_3004" x1="489.348" y1="128.776" x2="505.088" y2="141.011" gradientUnits="userSpaceOnUse">
<stop stop-color="#9DE8EE"/>
<stop offset="0.0001" stop-color="#9DE8EE"/>
<stop offset="0.490049" stop-color="#FA7C0B"/>
<stop offset="1" stop-color="#9F8CED"/>
</linearGradient>
<linearGradient id="paint10_linear_1_3004" x1="428.378" y1="147.928" x2="464.879" y2="199.54" gradientUnits="userSpaceOnUse">
<stop stop-color="#9DE8EE"/>
<stop offset="0.0001" stop-color="#9DE8EE"/>
<stop offset="0.490049" stop-color="#FA7C0B"/>
<stop offset="1" stop-color="#9F8CED"/>
</linearGradient>
<linearGradient id="paint11_linear_1_3004" x1="472.035" y1="100.414" x2="472.302" y2="105.036" gradientUnits="userSpaceOnUse">
<stop stop-color="#9DE8EE"/>
<stop offset="0.0001" stop-color="#9DE8EE"/>
<stop offset="0.490049" stop-color="#FA7C0B"/>
<stop offset="1" stop-color="#9F8CED"/>
</linearGradient>
<linearGradient id="paint12_linear_1_3004" x1="421.963" y1="114.072" x2="471.648" y2="158.321" gradientUnits="userSpaceOnUse">
<stop stop-color="#9DE8EE"/>
<stop offset="0.0001" stop-color="#9DE8EE"/>
<stop offset="0.490049" stop-color="#FA7C0B"/>
<stop offset="1" stop-color="#9F8CED"/>
</linearGradient>
<linearGradient id="paint13_linear_1_3004" x1="442.621" y1="109.864" x2="446.709" y2="112.051" gradientUnits="userSpaceOnUse">
<stop stop-color="#9DE8EE"/>
<stop offset="0.0001" stop-color="#9DE8EE"/>
<stop offset="0.490049" stop-color="#FA7C0B"/>
<stop offset="1" stop-color="#9F8CED"/>
</linearGradient>
<linearGradient id="paint14_linear_1_3004" x1="279.095" y1="61.0553" x2="293.587" y2="102.956" gradientUnits="userSpaceOnUse">
<stop stop-color="#9DE8EE"/>
<stop offset="0.0001" stop-color="#9DE8EE"/>
<stop offset="0.490049" stop-color="#FA7C0B"/>
<stop offset="1" stop-color="#9F8CED"/>
</linearGradient>
<linearGradient id="paint15_linear_1_3004" x1="287.248" y1="61.2945" x2="298.854" y2="74.5269" gradientUnits="userSpaceOnUse">
<stop stop-color="#9DE8EE"/>
<stop offset="0.0001" stop-color="#9DE8EE"/>
<stop offset="0.490049" stop-color="#FA7C0B"/>
<stop offset="1" stop-color="#9F8CED"/>
</linearGradient>
<linearGradient id="paint16_linear_1_3004" x1="265.158" y1="64.6244" x2="275.451" y2="68.167" gradientUnits="userSpaceOnUse">
<stop stop-color="#9DE8EE"/>
<stop offset="0.0001" stop-color="#9DE8EE"/>
<stop offset="0.490049" stop-color="#FA7C0B"/>
<stop offset="1" stop-color="#9F8CED"/>
</linearGradient>
<linearGradient id="paint17_linear_1_3004" x1="313.771" y1="78.621" x2="314.234" y2="81.9003" gradientUnits="userSpaceOnUse">
<stop stop-color="#9DE8EE"/>
<stop offset="0.0001" stop-color="#9DE8EE"/>
<stop offset="0.490049" stop-color="#FA7C0B"/>
<stop offset="1" stop-color="#9F8CED"/>
</linearGradient>
<linearGradient id="paint18_linear_1_3004" x1="331.072" y1="97.2192" x2="343.486" y2="103.958" gradientUnits="userSpaceOnUse">
<stop stop-color="#9DE8EE"/>
<stop offset="0.0001" stop-color="#9DE8EE"/>
<stop offset="0.490049" stop-color="#FA7C0B"/>
<stop offset="1" stop-color="#9F8CED"/>
</linearGradient>
<linearGradient id="paint19_linear_1_3004" x1="276.091" y1="99.2376" x2="306.018" y2="145.073" gradientUnits="userSpaceOnUse">
<stop stop-color="#9DE8EE"/>
<stop offset="0.0001" stop-color="#9DE8EE"/>
<stop offset="0.490049" stop-color="#FA7C0B"/>
<stop offset="1" stop-color="#9F8CED"/>
</linearGradient>
<linearGradient id="paint20_linear_1_3004" x1="315.405" y1="93.8814" x2="316.455" y2="97.8051" gradientUnits="userSpaceOnUse">
<stop stop-color="#9DE8EE"/>
<stop offset="0.0001" stop-color="#9DE8EE"/>
<stop offset="0.490049" stop-color="#FA7C0B"/>
<stop offset="1" stop-color="#9F8CED"/>
</linearGradient>
<linearGradient id="paint21_linear_1_3004" x1="277.162" y1="96.2846" x2="286.924" y2="103.136" gradientUnits="userSpaceOnUse">
<stop stop-color="#9DE8EE"/>
<stop offset="0.0001" stop-color="#9DE8EE"/>
<stop offset="0.490049" stop-color="#FA7C0B"/>
<stop offset="1" stop-color="#9F8CED"/>
</linearGradient>
<linearGradient id="paint22_linear_1_3004" x1="297.147" y1="145.717" x2="301.5" y2="149.498" gradientUnits="userSpaceOnUse">
<stop stop-color="#9DE8EE"/>
<stop offset="0.0001" stop-color="#9DE8EE"/>
<stop offset="0.490049" stop-color="#FA7C0B"/>
<stop offset="1" stop-color="#9F8CED"/>
</linearGradient>
<linearGradient id="paint23_linear_1_3004" x1="258.435" y1="129.86" x2="262.232" y2="132.86" gradientUnits="userSpaceOnUse">
<stop stop-color="#9DE8EE"/>
<stop offset="0.0001" stop-color="#9DE8EE"/>
<stop offset="0.490049" stop-color="#FA7C0B"/>
<stop offset="1" stop-color="#9F8CED"/>
</linearGradient>
<linearGradient id="paint24_linear_1_3004" x1="260.375" y1="165.875" x2="332.296" y2="307.219" gradientUnits="userSpaceOnUse">
<stop stop-color="#9DE8EE"/>
<stop offset="0.0001" stop-color="#9DE8EE"/>
<stop offset="0.490049" stop-color="#FA7C0B"/>
<stop offset="1" stop-color="#9F8CED"/>
</linearGradient>
<linearGradient id="paint25_linear_1_3004" x1="217.915" y1="307.8" x2="217.94" y2="310.453" gradientUnits="userSpaceOnUse">
<stop stop-color="#9DE8EE"/>
<stop offset="0.0001" stop-color="#9DE8EE"/>
<stop offset="0.490049" stop-color="#FA7C0B"/>
<stop offset="1" stop-color="#9F8CED"/>
</linearGradient>
<linearGradient id="paint26_linear_1_3004" x1="320.199" y1="100.487" x2="322.829" y2="103.761" gradientUnits="userSpaceOnUse">
<stop stop-color="#9DE8EE"/>
<stop offset="0.0001" stop-color="#9DE8EE"/>
<stop offset="0.490049" stop-color="#FA7C0B"/>
<stop offset="1" stop-color="#9F8CED"/>
</linearGradient>
</defs>
</svg>
