<svg width="104" height="124" viewBox="0 0 104 124" fill="none" xmlns="http://www.w3.org/2000/svg">
<g clip-path="url(#clip0_2_8)">
<path fill-rule="evenodd" clip-rule="evenodd" d="M16.47 90.05C23.81 84.79 35.57 90.44 40.21 81.28C41.44 78.85 41.7 75.53 40.6 72.89C40.15 71.83 39.49 70.88 38.6 70.16C38.21 69.84 37.77 69.56 37.28 69.32C31.24 66.32 24.95 70.52 21.61 75.58C18.54 80.24 17.2 86.06 16.47 90.05ZM13.22 0.5H59.36C62.86 0.5 66.07 1.94 68.36 4.22C70.68 6.54 72.09 9.71 72.09 13.22V23.67L68.44 26.32V20.23H4.11V103.76H68.43V71.37L72.08 67.91V110.66C72.08 114.16 70.64 117.37 68.35 119.66C66.03 121.98 62.86 123.38 59.35 123.38H13.22C9.72 123.38 6.51 121.94 4.22 119.66C1.9 117.34 0.5 114.17 0.5 110.66V13.22C0.5 9.72 1.94 6.51 4.22 4.22C6.55 1.9 9.72 0.5 13.22 0.5ZM36.27 107.74C39.15 107.74 41.51 110.06 41.51 112.98C41.51 115.86 39.19 118.22 36.27 118.22C33.39 118.22 31.03 115.9 31.03 112.98C31.04 110.1 33.36 107.74 36.27 107.74ZM53.71 49.87C57.8 53.13 60.97 56.89 63.13 61.2L101.12 25.18C103.1 23.3 104.23 21.71 102.57 18.82C101.74 17.97 100.87 17.52 99.95 17.46C99.03 17.4 98.07 17.73 97.06 18.46L53.71 49.87ZM39.84 65.97C41.61 66.92 44.04 69.26 44.62 71.82L61.09 62.78C58.71 58.05 55.69 54 51.53 51.12C47.2 56.94 44.76 60.45 39.84 65.97Z" fill="url(#paint0_linear_2_8)"/>
</g>
<defs>
<linearGradient id="paint0_linear_2_8" x1="103.459" y1="9.09903e-08" x2="39.1273" y2="116.295" gradientUnits="userSpaceOnUse">
<stop offset="0.1" stop-color="#C83F27"/>
<stop offset="0.3" stop-color="#9FECD0"/>
<stop offset="0.6" stop-color="#E14553"/>
</linearGradient>
<clipPath id="clip0_2_8">
<rect width="102.87" height="122.88" fill="white" transform="translate(0.5 0.5)"/>
</clipPath>
</defs>
</svg>
