<svg width="124" height="89" viewBox="0 0 124 89" fill="none" xmlns="http://www.w3.org/2000/svg">
<g clip-path="url(#clip0_2_3)">
<path fill-rule="evenodd" clip-rule="evenodd" d="M59.8 10.61C58.372 10.5582 56.9422 10.6017 55.52 10.74C49.8414 11.2559 44.4254 13.371 39.9 16.84C34.1979 21.3471 30.3738 27.8121 29.17 34.98L28.69 37.5L26.19 37.94C23.9514 38.317 21.7545 38.9098 19.63 39.71C17.8531 40.3762 16.172 41.2739 14.63 42.38C13.5153 43.1785 12.5071 44.116 11.63 45.17C9.07907 48.299 7.72495 52.2338 7.81001 56.27C7.86092 60.4142 9.19166 64.4414 11.62 67.8C12.5292 69.0593 13.5906 70.2013 14.78 71.2C15.3276 71.6664 15.9019 72.1004 16.5 72.5C16.5 72.96 16.5 73.43 16.5 73.91C16.4921 75.3476 16.6736 76.7799 17.04 78.17C17.0926 78.4268 17.1594 78.6806 17.24 78.93L17.43 79.46C17.2586 79.9126 17.1346 80.3818 17.06 80.86L16.12 80.5C13.9474 79.6014 11.9243 78.3774 10.12 76.87C8.46174 75.4869 6.98353 73.9011 5.72001 72.15C2.38012 67.5312 0.556213 61.9896 0.500006 56.29C0.3985 50.5156 2.35523 44.8936 6.02001 40.43C7.29374 38.9205 8.75179 37.5766 10.36 36.43C12.4135 34.9694 14.6449 33.7765 17 32.88C18.7885 32.1746 20.6269 31.603 22.5 31.17C24.3935 23.181 28.9501 16.0746 35.42 11.02C41.0468 6.70698 47.7798 4.07546 54.84 3.43C58.059 3.12799 61.3029 3.21866 64.5 3.7C64.2517 4.38959 64.0774 5.10359 63.98 5.83C63.98 6.09 63.92 6.36 63.9 6.62C63.4154 6.88582 62.9508 7.18662 62.51 7.52C61.3991 8.35922 60.4646 9.40925 59.76 10.61H59.8ZM79.34 76.76V83.32C79.5727 83.4835 79.8338 83.6022 80.11 83.67L80.01 88.2C78.8829 88.4034 77.7439 88.5337 76.6 88.59C76.0248 88.5946 75.453 88.4999 74.91 88.31C74.5377 88.2087 74.195 88.0201 73.91 87.76L73.63 87.5C72.1503 88.2825 70.4932 88.6684 68.82 88.62C67.2883 88.7264 65.7713 88.2635 64.56 87.32C64.0425 86.7661 63.6477 86.1093 63.4013 85.3925C63.1549 84.6757 63.0625 83.915 63.13 83.16C63.13 81.24 63.68 79.95 64.75 79.31C66.3538 78.5465 68.1142 78.1698 69.89 78.21L72.19 78.11V77.3C72.19 76.9 71.74 76.69 70.85 76.69C68.92 76.69 66.96 76.84 65.04 77.01L63.99 77.11L63.83 72.26C66.3275 71.5566 68.9057 71.1801 71.5 71.14C73.4422 71.0491 75.3783 71.4192 77.15 72.22C78.59 72.98 79.32 74.53 79.32 76.76H79.34ZM39.98 72.94C36.98 72.62 34.79 72.46 33.43 72.46C32.635 72.4269 31.8386 72.4637 31.05 72.57C30.9498 72.5993 30.8626 72.6618 30.8027 72.7472C30.7427 72.8326 30.7135 72.9358 30.72 73.04C30.7236 73.1573 30.7615 73.271 30.829 73.367C30.8966 73.463 30.9908 73.537 31.1 73.58C31.8855 73.8557 32.6912 74.0697 33.51 74.22C34.631 74.4565 35.7391 74.7502 36.83 75.1C37.6693 75.3691 38.4571 75.7782 39.16 76.31C39.7989 76.7875 40.2684 77.4567 40.5 78.22C40.7429 79.2009 40.8539 80.2098 40.83 81.22C40.83 83.8867 40.1267 85.7733 38.72 86.88C37.32 88 35.2 88.57 32.37 88.57C30.9353 88.5634 29.5025 88.4665 28.08 88.28C26.58 88.09 25.42 87.9 24.61 87.71L23.41 87.5L23.73 81.85C26.3779 82.2628 29.0506 82.4967 31.73 82.55C32.84 82.55 33.39 82.31 33.39 81.81C33.39 81.6 33.26 81.45 33.01 81.35C32.3276 81.165 31.6323 81.0313 30.93 80.95C27.93 80.48 25.93 79.75 24.85 78.76C23.77 77.77 23.24 76.15 23.24 73.9C23.24 71.02 23.93 69.05 25.31 67.99C26.7 66.93 28.83 66.39 31.7 66.39C34.0848 66.4237 36.4642 66.6275 38.82 67L40.16 67.22L39.97 72.97L39.98 72.94ZM99.5 72.94C96.5 72.6467 94.3167 72.5 92.95 72.5C92.1583 72.471 91.3656 72.5078 90.58 72.61C90.478 72.6374 90.3885 72.6991 90.3266 72.7847C90.2647 72.8702 90.2341 72.9745 90.24 73.08C90.2431 73.1988 90.2819 73.3139 90.3515 73.4103C90.4211 73.5067 90.5182 73.5798 90.63 73.62C91.413 73.8926 92.2152 74.1065 93.03 74.26C94.1553 74.4919 95.267 74.7857 96.36 75.14C97.1963 75.4091 97.9807 75.8183 98.68 76.35C99.3359 76.8193 99.8204 77.49 100.06 78.26C100.303 79.2409 100.414 80.2498 100.39 81.26C100.39 83.9267 99.69 85.8133 98.29 86.92C96.88 88.04 94.76 88.61 91.93 88.61C90.4953 88.6034 89.0625 88.5065 87.64 88.32C86.14 88.13 84.96 87.93 84.18 87.75L82.93 87.5L83.25 81.85C85.898 82.2624 88.5707 82.4963 91.25 82.55C92.36 82.55 92.91 82.31 92.91 81.81C92.9061 81.7022 92.8668 81.5987 92.7981 81.5155C92.7294 81.4323 92.6351 81.3741 92.53 81.35C91.8484 81.1763 91.1572 81.0428 90.46 80.95C87.46 80.51 85.46 79.75 84.37 78.76C83.28 77.77 82.76 76.15 82.76 73.9C82.76 71.02 83.46 69.04 84.84 67.99C86.22 66.94 88.35 66.39 91.22 66.39C93.606 66.3983 95.9873 66.6023 98.34 67L99.68 67.22L99.5 72.94ZM50.42 84.56C51.2826 84.5167 52.1 84.1613 52.72 83.56V81.12L50.66 81.25C50.4384 81.2427 50.2177 81.2834 50.0133 81.3692C49.8088 81.455 49.6253 81.584 49.4752 81.7474C49.3252 81.9107 49.2122 82.1045 49.144 82.3155C49.0758 82.5265 49.054 82.7498 49.08 82.97C49.08 84.03 49.53 84.56 50.42 84.56ZM70.12 84.56C70.9826 84.5167 71.8 84.1613 72.42 83.56V81.12L70.36 81.25C70.1392 81.2442 69.9197 81.2859 69.7164 81.3724C69.5132 81.4589 69.3309 81.5881 69.182 81.7512C69.0331 81.9144 68.921 82.1077 68.8533 82.318C68.7857 82.5283 68.7641 82.7506 68.79 82.97C68.79 84.03 69.23 84.56 70.12 84.56ZM59.64 76.76V83.32C59.8727 83.4835 60.1338 83.6022 60.41 83.67L60.32 88.2C59.1895 88.4031 58.0472 88.5334 56.9 88.59C56.3248 88.5946 55.753 88.4999 55.21 88.31C54.8387 88.2062 54.4965 88.018 54.21 87.76L53.93 87.5C52.4535 88.2813 50.7998 88.6671 49.13 88.62C47.5948 88.7308 46.073 88.2676 44.86 87.32C44.341 86.7672 43.9451 86.1106 43.6986 85.3935C43.4521 84.6763 43.3605 83.9151 43.43 83.16C43.43 81.24 43.97 79.95 45.05 79.31C46.6553 78.5407 48.4205 78.1637 50.2 78.21L52.49 78.11V77.3C52.49 76.9 52.05 76.69 51.15 76.69C49.21 76.69 47.26 76.84 45.34 77.01L44.29 77.11L44.13 72.26C46.6339 71.5548 49.219 71.1783 51.82 71.14C53.7724 71.042 55.7199 71.4123 57.5 72.22C58.93 72.99 59.66 74.52 59.66 76.76H59.64ZM102.25 7.4L104.76 10.71C105.074 11.1305 105.21 11.6577 105.139 12.1778C105.068 12.6979 104.795 13.1692 104.38 13.49L101.71 15.49C102.203 16.8018 102.515 18.1743 102.64 19.57L105.64 19.98C106.161 20.0545 106.632 20.3315 106.95 20.7508C107.268 21.1701 107.408 21.698 107.34 22.22L106.78 26.35C106.706 26.8711 106.429 27.3419 106.009 27.6601C105.59 27.9784 105.062 28.1185 104.54 28.05L101.22 27.59C100.638 28.8634 99.8844 30.0511 98.98 31.12L100.84 33.57C101.156 33.9924 101.293 34.5227 101.22 35.0453C101.147 35.5679 100.87 36.0405 100.45 36.36L97.17 38.9C96.747 39.212 96.2182 39.3449 95.698 39.2701C95.1777 39.1952 94.7079 38.9186 94.39 38.5L92.39 35.83C91.0757 36.3241 89.6993 36.6337 88.3 36.75L87.89 39.75C87.8594 40.0164 87.7755 40.2739 87.6434 40.5072C87.5112 40.7405 87.3335 40.9449 87.1208 41.1081C86.9081 41.2714 86.6648 41.3902 86.4052 41.4575C86.1457 41.5249 85.8752 41.5393 85.61 41.5L81.5 40.95C80.9769 40.8756 80.5045 40.5972 80.186 40.1756C79.8675 39.754 79.7287 39.2235 79.8 38.7L80.26 35.39C78.988 34.7997 77.7981 34.0467 76.72 33.15L74.28 35.01C73.8595 35.3242 73.3323 35.4604 72.8122 35.3893C72.2921 35.3182 71.8208 35.0455 71.5 34.63L68.99 31.32C68.8272 31.1117 68.7073 30.8732 68.6372 30.6183C68.5671 30.3634 68.5482 30.0971 68.5817 29.8349C68.6152 29.5727 68.7003 29.3197 68.8322 29.0905C68.9641 28.8614 69.1401 28.6607 69.35 28.5L72.02 26.5C71.5269 25.1889 71.2173 23.8159 71.1 22.42L68.1 22C67.5789 21.9255 67.1081 21.6486 66.7899 21.2292C66.4716 20.8099 66.3315 20.282 66.4 19.76L66.96 15.64C67.0345 15.1189 67.3115 14.6481 67.7308 14.3299C68.1501 14.0116 68.678 13.8715 69.2 13.94L72.5 14.4C73.0904 13.1311 73.8434 11.9445 74.74 10.87L72.86 8.43C72.5459 8.00946 72.4096 7.48227 72.4807 6.96219C72.5518 6.4421 72.8245 5.97081 73.24 5.65L76.55 3.14C76.9688 2.82055 77.4966 2.67918 78.019 2.74658C78.5414 2.81398 79.0161 3.08472 79.34 3.5L81.34 6.16C82.6536 5.67525 84.0255 5.36591 85.42 5.24L85.84 2.24C85.872 1.97645 85.9562 1.72191 86.0876 1.49121C86.219 1.26052 86.395 1.0583 86.6053 0.896337C86.8157 0.734376 87.0562 0.615919 87.3128 0.547873C87.5694 0.479826 87.837 0.463553 88.1 0.500002L92.22 1.06C92.7411 1.1345 93.2119 1.41145 93.5301 1.83079C93.8484 2.25013 93.9885 2.77804 93.92 3.3L93.5 6.64C94.774 7.22655 95.9645 7.97981 97.04 8.88L99.5 7.03C99.9207 6.70851 100.452 6.56693 100.976 6.63629C101.501 6.70564 101.977 6.98029 102.3 7.4H102.25ZM59.17 33.04C59.0255 32.934 58.8611 32.8584 58.6866 32.8175C58.5121 32.7767 58.3312 32.7715 58.1547 32.8023C57.9782 32.8331 57.8097 32.8993 57.6594 32.9969C57.5091 33.0944 57.38 33.2213 57.28 33.37L56.09 35.06C55.6545 34.8786 55.2067 34.7282 54.75 34.61C54.2887 34.4917 53.8213 34.3983 53.35 34.33L52.97 32.11C52.9411 31.9338 52.8772 31.7651 52.7822 31.6139C52.6872 31.4626 52.5629 31.332 52.4166 31.2295C52.2703 31.127 52.105 31.0548 51.9305 31.0171C51.7559 30.9794 51.5755 30.977 51.4 31.01L48.62 31.5C48.4468 31.5283 48.2812 31.5917 48.1333 31.6863C47.9854 31.7809 47.8584 31.9046 47.76 32.05C47.6531 32.1909 47.5773 32.3529 47.5377 32.5253C47.498 32.6977 47.4954 32.8765 47.53 33.05L47.88 35.05C47.4409 35.2345 47.0164 35.4517 46.61 35.7C46.2232 35.9425 45.8524 36.2097 45.5 36.5L43.63 35.2C43.4902 35.0908 43.3286 35.0129 43.1561 34.9714C42.9835 34.93 42.8042 34.9261 42.63 34.96C42.4527 34.9915 42.2835 35.0582 42.1324 35.1561C41.9813 35.254 41.8513 35.3811 41.75 35.53L40.15 37.82C40.0401 37.9666 39.9616 38.1343 39.9196 38.3127C39.8775 38.4911 39.8728 38.6762 39.9056 38.8565C39.9385 39.0367 40.0082 39.2083 40.1105 39.3603C40.2128 39.5124 40.3454 39.6416 40.5 39.74L42.19 40.93C42.0043 41.3639 41.8538 41.812 41.74 42.27C41.6184 42.7312 41.5216 43.1985 41.45 43.67L39.24 44.05C39.0638 44.0789 38.8951 44.1428 38.7439 44.2378C38.5926 44.3328 38.462 44.4572 38.3595 44.6034C38.257 44.7497 38.1848 44.915 38.1471 45.0896C38.1094 45.2641 38.107 45.4445 38.14 45.62L38.63 48.4C38.6584 48.5732 38.7217 48.7388 38.8163 48.8867C38.9109 49.0346 39.0346 49.1616 39.18 49.26C39.3209 49.3669 39.4829 49.4427 39.6553 49.4823C39.8277 49.522 40.0065 49.5246 40.18 49.49L42.18 49.14C42.3645 49.5791 42.5818 50.0036 42.83 50.41C43.0702 50.8152 43.3339 51.2058 43.62 51.58L42.32 53.43C42.2108 53.5698 42.1329 53.7314 42.0915 53.9039C42.0501 54.0765 42.0461 54.2559 42.08 54.43C42.1075 54.6086 42.1725 54.7794 42.2708 54.931C42.369 55.0827 42.4983 55.2119 42.65 55.31L44.94 56.94C45.2346 57.1344 45.5921 57.2095 45.94 57.15C46.1153 57.1232 46.2834 57.0616 46.4345 56.9689C46.5857 56.8761 46.7167 56.7541 46.82 56.61L48.01 54.89C48.4439 55.0757 48.892 55.2262 49.35 55.34C49.808 55.4606 50.272 55.5574 50.74 55.63L51.13 57.84C51.1589 58.0162 51.2228 58.1849 51.3178 58.3361C51.4128 58.4874 51.5372 58.6181 51.6834 58.7205C51.8297 58.823 51.995 58.8952 52.1696 58.9329C52.3441 58.9706 52.5245 58.973 52.7 58.94L55.5 58.44C55.8527 58.3789 56.1667 58.1803 56.373 57.8878C56.5793 57.5952 56.6609 57.2327 56.6 56.88L56.25 54.88C56.6831 54.685 57.101 54.4577 57.5 54.2C57.9052 53.9599 58.2958 53.6961 58.67 53.41L60.5 54.71C60.6407 54.8175 60.8024 54.8944 60.9746 54.9358C61.1468 54.9771 61.3258 54.9819 61.5 54.95C61.6768 54.9212 61.8456 54.8555 61.9955 54.7574C62.1454 54.6592 62.273 54.5306 62.37 54.38L64 52.09C64.1944 51.7954 64.2695 51.4379 64.21 51.09C64.1477 50.7389 63.9548 50.4245 63.67 50.21L61.95 49.02C62.1314 48.5845 62.2818 48.1367 62.4 47.68C62.5173 47.2218 62.6108 46.7579 62.68 46.29L64.9 45.9C65.0763 45.8711 65.2449 45.8072 65.3961 45.7122C65.5474 45.6172 65.6781 45.4929 65.7805 45.3466C65.883 45.2003 65.9552 45.035 65.9929 44.8605C66.0306 44.6859 66.033 44.5055 66 44.33L65.5 41.55C65.473 41.375 65.4102 41.2075 65.3155 41.0578C65.2209 40.9081 65.0965 40.7795 64.95 40.68C64.8091 40.5731 64.6471 40.4973 64.4747 40.4577C64.3023 40.418 64.1235 40.4154 63.95 40.45L61.95 40.8C61.7543 40.353 61.5305 39.9188 61.28 39.5C61.0462 39.1123 60.7856 38.7413 60.5 38.39L61.79 36.5C61.8992 36.3602 61.9772 36.1986 62.0186 36.0261C62.06 35.8535 62.0639 35.6742 62.03 35.5C61.9612 35.1439 61.7568 34.8284 61.46 34.62L59.17 33.02V33.04ZM51.34 40.92C51.8806 40.805 52.4394 40.805 52.98 40.92C54.0277 41.1694 54.9339 41.8238 55.5 42.74C55.7957 43.2043 55.9966 43.7226 56.091 44.265C56.1854 44.8074 56.1715 45.3631 56.05 45.9C55.8655 46.6869 55.4547 47.4026 54.8683 47.9588C54.2819 48.515 53.5455 48.8874 52.75 49.03C51.9516 49.1768 51.1276 49.0809 50.3843 48.7547C49.641 48.4285 49.0125 47.887 48.58 47.2C48.28 46.7387 48.076 46.2218 47.98 45.68C47.8321 44.8791 47.9284 44.0522 48.2565 43.3068C48.5847 42.5613 49.1294 41.9318 49.82 41.5C50.2797 41.199 50.7976 40.998 51.34 40.91V40.92ZM87.97 12.92C89.573 13.1385 91.0752 13.8275 92.2867 14.8998C93.4981 15.9721 94.3644 17.3796 94.776 18.9442C95.1875 20.5089 95.1258 22.1604 94.5987 23.69C94.0717 25.2196 93.1028 26.5585 91.8148 27.5375C90.5267 28.5165 88.9773 29.0915 87.3625 29.1899C85.7476 29.2883 84.1398 28.9056 82.7425 28.0902C81.3451 27.2749 80.2209 26.0634 79.512 24.6091C78.8032 23.1549 78.5415 21.523 78.76 19.92C78.9039 18.8551 79.2564 17.829 79.7974 16.9006C80.3384 15.9721 81.0572 15.1595 81.9128 14.5093C82.7683 13.859 83.7437 13.3839 84.7831 13.1112C85.8225 12.8385 86.9055 12.7735 87.97 12.92ZM114.5 30.37C114.88 30.73 115.24 31.1 115.61 31.49C116.718 32.7033 117.722 34.0079 118.61 35.39C121.882 40.7875 123.537 47.0102 123.38 53.32C123.31 59.63 121.61 65.91 118.13 70.53C115.803 73.5791 112.863 76.1067 109.5 77.95C108.73 78.38 107.92 78.79 107.09 79.17V78.84C107.003 77.987 106.839 77.1435 106.6 76.32C106.454 75.8168 106.27 75.3253 106.05 74.85C106.212 74.2971 106.302 73.7258 106.32 73.15L106.38 71.28C108.686 69.9839 110.706 68.2357 112.32 66.14C114.82 62.81 116.05 58.14 116.1 53.27C116.255 48.3985 115.009 43.5848 112.51 39.4C111.822 38.3655 111.042 37.395 110.18 36.5L109.73 36.04C109.73 35.83 109.73 35.61 109.79 35.4C110.281 35.1402 110.75 34.8391 111.19 34.5C112.63 33.4305 113.77 32.0081 114.5 30.37Z" fill="url(#paint0_linear_2_3)"/>
</g>
<defs>
<linearGradient id="paint0_linear_2_3" x1="123.494" y1="0.12236" x2="90.895" y2="98.2538" gradientUnits="userSpaceOnUse">
<stop offset="0.1" stop-color="#C83F27"/>
<stop offset="0.3" stop-color="#9FECD0"/>
<stop offset="0.6" stop-color="#E14553"/>
</linearGradient>
<clipPath id="clip0_2_3">
<rect width="122.88" height="88.12" fill="white" transform="translate(0.5 0.5)"/>
</clipPath>
</defs>
</svg>
