<svg width="124" height="96" viewBox="0 0 124 96" fill="none" xmlns="http://www.w3.org/2000/svg">
<g clip-path="url(#clip0_2_14)">
<path fill-rule="evenodd" clip-rule="evenodd" d="M8.82 0.5H115.06C119.64 0.5 123.38 4.24 123.38 8.82V87.69C123.38 92.26 119.64 96.01 115.06 96.01H8.82C4.24 96.01 0.5 92.27 0.5 87.69V8.82C0.5 4.24 4.24 0.5 8.82 0.5ZM13.1 27.45H109.87V68.53H13.1V27.45ZM32.71 39.17H38.69V51.61C38.69 52.84 38.51 54.01 38.15 55.1C37.79 56.2 37.23 57.16 36.47 57.98C35.71 58.8 34.91 59.38 34.07 59.71C32.91 60.17 31.51 60.41 29.88 60.41C28.94 60.41 27.91 60.34 26.79 60.2C25.68 60.06 24.74 59.78 23.99 59.35C23.24 58.93 22.56 58.33 21.94 57.55C21.32 56.77 20.89 55.97 20.66 55.14C20.29 53.81 20.1 52.64 20.1 51.61V39.17H26.08V51.91C26.08 53.05 26.37 53.94 26.96 54.57C27.55 55.21 28.36 55.53 29.4 55.53C30.42 55.53 31.23 55.21 31.82 54.58C32.4 53.95 32.7 53.06 32.7 51.9V39.17H32.71ZM42.89 39.17H48.9V60.06H42.89V39.17ZM56.09 38.82H58.81L53.92 60.41H51.2L56.09 38.82ZM73.32 39.17H79.3V51.61C79.3 52.84 79.12 54.01 78.76 55.1C78.4 56.2 77.84 57.16 77.08 57.98C76.32 58.8 75.52 59.38 74.68 59.71C73.52 60.17 72.12 60.41 70.49 60.41C69.55 60.41 68.52 60.34 67.4 60.2C66.29 60.06 65.35 59.78 64.6 59.35C63.85 58.93 63.17 58.33 62.55 57.55C61.93 56.77 61.5 55.97 61.27 55.14C60.9 53.81 60.72 52.64 60.72 51.61V39.17H66.7V51.91C66.7 53.05 66.99 53.94 67.58 54.57C68.17 55.21 68.98 55.53 70.02 55.53C71.04 55.53 71.85 55.21 72.44 54.58C73.02 53.95 73.32 53.06 73.32 51.9V39.17ZM81.93 39.17H88.54L91.97 45.6L95.3 39.17H101.82L95.8 49.29L102.39 60.06H95.65L91.85 53.35L88.02 60.06H81.33L88.01 49.17L81.93 39.17ZM67.37 84.18C65.59 84.18 64.15 82.61 64.15 80.68C64.15 78.74 65.59 77.18 67.37 77.18H107.02C108.8 77.18 110.24 78.75 110.24 80.68C110.24 82.62 108.8 84.18 107.02 84.18H67.37ZM15.46 84.18C13.7 84.18 12.27 82.61 12.27 80.68C12.27 78.74 13.7 77.18 15.46 77.18H52.22C53.98 77.18 55.41 78.75 55.41 80.68C55.41 82.62 53.98 84.18 52.22 84.18H15.46ZM118.47 20.6H5.79V88.5C5.79 89.14 6.04 89.7 6.46 90.13C6.89 90.55 7.45 90.8 8.09 90.8H116.13C116.77 90.8 117.33 90.55 117.76 90.13C118.19 89.7 118.43 89.14 118.43 88.5V20.6H118.47ZM107.14 6.66C109.41 6.66 111.25 8.5 111.25 10.77C111.25 13.04 109.41 14.88 107.14 14.88C104.87 14.88 103.03 13.04 103.03 10.77C103.04 8.5 104.88 6.66 107.14 6.66ZM79.3 6.66C81.57 6.66 83.41 8.5 83.41 10.77C83.41 13.04 81.57 14.88 79.3 14.88C77.03 14.88 75.19 13.04 75.19 10.77C75.19 8.5 77.03 6.66 79.3 6.66ZM93.22 6.66C95.49 6.66 97.33 8.5 97.33 10.77C97.33 13.04 95.49 14.88 93.22 14.88C90.95 14.88 89.11 13.04 89.11 10.77C89.11 8.5 90.95 6.66 93.22 6.66Z" fill="url(#paint0_linear_2_14)"/>
</g>
<defs>
<linearGradient id="paint0_linear_2_14" x1="123.484" y1="0.111369" x2="85.8647" y2="104.622" gradientUnits="userSpaceOnUse">
<stop offset="0.1" stop-color="#C83F27"/>
<stop offset="0.3" stop-color="#9FECD0"/>
<stop offset="0.6" stop-color="#E14553"/>
</linearGradient>
<clipPath id="clip0_2_14">
<rect width="122.88" height="95.51" fill="white" transform="translate(0.5 0.5)"/>
</clipPath>
</defs>
</svg>
