<svg width="124" height="103" viewBox="0 0 124 103" fill="none" xmlns="http://www.w3.org/2000/svg">
<g clip-path="url(#clip0_2_11)">
<path fill-rule="evenodd" clip-rule="evenodd" d="M3.84 0.5H120.04C121.88 0.5 123.38 2 123.38 3.84V80.82C123.38 82.66 121.88 84.16 120.04 84.16H3.84C2 84.16 0.5 82.66 0.5 80.82V3.84C0.5 2 2 0.5 3.84 0.5ZM13.07 12.18H22.89V14.74H13.07V12.18ZM27.57 39.3H13.07V36.73H27.57V39.3ZM47.3 39.31H30.52V36.73H47.3V39.31ZM76.16 39.31H50.14V36.74H76.17V39.31H76.16ZM37.75 28.57H88.9V31.1H37.75V28.57ZM25.72 28.55H34.98V31.11H25.72V28.55ZM13.07 28.55H22.89V31.11H13.07V28.55ZM35.27 22.91H13.07V20.37H35.28V22.91H35.27ZM47.3 22.92H38.04V20.36H47.3V22.92ZM76.16 22.93H50.14V20.36H76.17V22.93H76.16ZM37.75 12.18H59.96V14.72H37.75V12.18ZM25.72 12.18H34.98V14.74H25.72V12.18ZM91.7 62.58L82.6 57.48V54.56L91.7 49.46V52.82L85.36 55.98L91.7 59.24V62.58ZM93.39 64.85L96.68 46.94H98.59L95.28 64.85H93.39ZM99.98 62.6V59.26L106.33 56.06L99.98 52.82V49.5L109.08 54.64V57.52L99.98 62.6ZM46.79 88.77H77.09C77.17 94.01 79.33 98.7 85.18 102.4H38.7C43.38 99.01 46.81 94.89 46.79 88.77ZM61.94 72.91C64.31 72.91 66.23 74.83 66.23 77.2C66.23 79.57 64.31 81.49 61.94 81.49C59.57 81.49 57.65 79.57 57.65 77.2C57.65 74.83 59.57 72.91 61.94 72.91ZM10.55 6.79H113.34C114.97 6.79 116.29 8.12 116.29 9.74V67.26C116.29 68.88 114.96 70.21 113.34 70.21H10.55C8.93 70.21 7.6 68.88 7.6 67.26V9.74C7.59 8.12 8.92 6.79 10.55 6.79Z" fill="url(#paint0_linear_2_11)"/>
</g>
<defs>
<linearGradient id="paint0_linear_2_11" x1="123.484" y1="0.0853679" x2="81.3312" y2="109.847" gradientUnits="userSpaceOnUse">
<stop offset="0.1" stop-color="#C83F27"/>
<stop offset="0.3" stop-color="#9FECD0"/>
<stop offset="0.6" stop-color="#E14553"/>
</linearGradient>
<clipPath id="clip0_2_11">
<rect width="122.88" height="101.91" fill="white" transform="translate(0.5 0.5)"/>
</clipPath>
</defs>
</svg>
