<svg width="32" height="32" viewBox="0 0 32 32" fill="none" xmlns="http://www.w3.org/2000/svg">
<path fill-rule="evenodd" clip-rule="evenodd" d="M25.3201 2.99215C19.1013 -1.17336 8.66766 0.706428 4.68673 4.68663C0.705616 8.66682 0.573284 14.1606 0.0569687 17.3642C8.12479 9.44791 18.3819 1.8492 25.3201 2.99215ZM1.43827 22.6372C2.21066 24.3273 3.29197 25.9158 4.68664 27.3057C5.04849 27.6675 5.42371 28.0074 5.8077 28.3295C7.72319 24.3096 10.155 20.656 14.3391 16.4771C18.5186 12.2984 24.8301 9.58464 29.7336 7.7976C29.2657 7.13572 28.0565 5.45444 27.4783 4.85433C20.0061 4.80132 4.82348 16.7816 1.43827 22.6372ZM14.3876 31.9126C19.0218 32.3979 23.7576 30.8624 27.3106 27.3057C31.8918 22.7254 33.1144 16.0579 30.9783 10.3656C26.9972 12.2763 22.9499 15.1357 19.2516 18.8291C16.1266 21.9533 14.3876 26.5822 14.3876 31.9126Z" fill="url(#paint0_radial_55_3)"/>
<path fill-rule="evenodd" clip-rule="evenodd" d="M31.1504 10.851C33.5646 17.9376 30.7266 25.9687 24.0005 29.8519C20.9727 31.5947 17.6141 32.2434 14.3877 31.9126C24.1195 26.1717 30.4575 17.8495 31.1504 10.851ZM7.45393 29.5209C5.32661 28.1838 3.48618 26.3217 2.14445 23.9963C1.88846 23.555 1.65894 23.1051 1.45154 22.646C5.82983 21.8429 10.5302 20.1176 15.107 17.4787C20.774 14.209 25.3201 10.0612 28.3124 5.78531C28.8332 6.41197 29.3055 7.08261 29.7336 7.79749C28.03 14.3502 21.8951 21.6488 13.0019 26.785C11.1613 27.8442 9.3033 28.7575 7.45393 29.5209ZM0.0569696 17.3641C-0.450672 11.3761 2.45346 5.3484 8.00131 2.14486C13.6109 -1.09399 20.3726 -0.546894 25.3201 2.99205C22.4424 6.34126 18.6335 9.50949 14.1096 12.1218C9.39597 14.8445 4.54546 16.5875 0.0569696 17.3641Z" fill="url(#paint1_radial_55_3)"/>
<defs>
<radialGradient id="paint0_radial_55_3" cx="0" cy="0" r="1" gradientUnits="userSpaceOnUse" gradientTransform="translate(10.3341 29.4502) scale(23.2595 23.2547)">
<stop stop-color="#FFF33B"/>
<stop offset="0.0401" stop-color="#FEE72E"/>
<stop offset="0.1171" stop-color="#FED51B"/>
<stop offset="0.1964" stop-color="#FDCA10"/>
<stop offset="0.2809" stop-color="#FDC70C"/>
<stop offset="0.5878" stop-color="#F3903F"/>
<stop offset="0.8876" stop-color="#ED683C"/>
<stop offset="1" stop-color="#E93E3A"/>
</radialGradient>
<radialGradient id="paint1_radial_55_3" cx="0" cy="0" r="1" gradientUnits="userSpaceOnUse" gradientTransform="translate(29.1881 6.26377) scale(23.6539 23.649)">
<stop stop-color="#FFF33B"/>
<stop offset="0.0401" stop-color="#FEE72E"/>
<stop offset="0.1171" stop-color="#FED51B"/>
<stop offset="0.1964" stop-color="#FDCA10"/>
<stop offset="0.2809" stop-color="#FDC70C"/>
<stop offset="0.5878" stop-color="#F3903F"/>
<stop offset="0.8876" stop-color="#ED683C"/>
<stop offset="1" stop-color="#E93E3A"/>
</radialGradient>
</defs>
</svg>
